<svg xmlns="http://www.w3.org/2000/svg"  viewBox="0 0 50 50" width="25px" height="25px"><path fill="#6355F0" d="M 22 8 C 20.343 8 19 9.343 19 11 L 10 11 C 8.343 11 7 12.343 7 14 L 7 22.542969 C 9.895 22.959969 17.854 24.003906 25 24.003906 C 32.146 24.003906 40.105 22.959969 43 22.542969 L 43 14 C 43 12.343 41.657 11 40 11 L 31 11 C 31 9.343 29.657 8 28 8 L 22 8 z M 22 9 L 28 9 C 29.105 9 30 9.895 30 11 L 20 11 C 20 9.895 20.895 9 22 9 z M 7 23.568359 L 7 36 C 7 37.657 8.343 39 10 39 L 40 39 C 41.657 39 43 37.657 43 36 L 43 23.568359 C 40.089 23.978359 34.047 24.737313 28 24.945312 L 28 25.667969 C 28 26.403969 27.403016 27 26.666016 27 L 23.332031 27 C 22.596031 27 22 26.403016 22 25.666016 L 22 24.945312 C 15.953 24.737312 9.911 23.977359 7 23.568359 z"/></svg>